<?xml version="1.0" encoding="utf-8"?>
<!-- Generator: Adobe Illustrator 22.1.0, SVG Export Plug-In . SVG Version: 6.00 Build 0)  -->
<svg version="1.1" id="Layer_1" xmlns="http://www.w3.org/2000/svg" xmlns:xlink="http://www.w3.org/1999/xlink" x="0px" y="0px"
	 viewBox="0 0 2048 2048" style="enable-background:new 0 0 2048 2048;" xml:space="preserve">
<style type="text/css">
	.st0{fill:#1169A2;}
</style>
<path class="st0" d="M687.8,934.5h683.6V678.2c0-94.4-33.4-174.9-100.1-241.7S1124,336.4,1029.7,336.4
	c-94.4,0-174.9,33.4-241.7,100.1S687.8,583.8,687.8,678.2V934.5z M1798.7,1062.7v769.1c0,35.6-12.5,65.9-37.4,90.8
	c-24.9,24.9-55.2,37.4-90.8,37.4H388.7c-35.6,0-65.9-12.5-90.8-37.4s-37.4-55.2-37.4-90.8v-769.1c0-35.6,12.5-65.9,37.4-90.8
	s55.2-37.4,90.8-37.4h42.7V678.2c0-163.8,58.8-304.4,176.2-421.9S865.9,80,1029.7,80s304.4,58.8,421.9,176.2
	s176.2,258.1,176.2,421.9v256.4h42.7c35.6,0,65.9,12.5,90.8,37.4C1786.3,996.9,1798.7,1027.1,1798.7,1062.7z"/>
</svg>
